HIERARCHY
ROOT SimulationBone
{
	OFFSET 0.000000 0.000000 0.000000
	CHANNELS 6 Xposition Yposition Zposition Zrotation Yrotation Xrotation 
	JOINT Hips
	{
		OFFSET 0.000000 0.000000 0.000000
		CHANNELS 6 Xposition Yposition Zposition Zrotation Yrotation Xrotation 
		JOINT LeftUpLeg
		{
			OFFSET 0.103458 1.857831 10.548505
			CHANNELS 3 Zrotation Yrotation Xrotation
			JOINT LeftLeg
			{
				OFFSET 43.500000 -0.000031 0.000002
				CHANNELS 3 Zrotation Yrotation Xrotation
				JOINT LeftFoot
				{
					OFFSET 42.372200 0.000023 0.000003
					CHANNELS 3 Zrotation Yrotation Xrotation
					JOINT LeftToe
					{
						OFFSET 17.299997 -0.000001 -0.000010
						CHANNELS 3 Zrotation Yrotation Xrotation
						End Site
						{
							OFFSET 0.000000 0.000000 0.000000
						}
					}
				}
			}
		}
		JOINT RightUpLeg
		{
			OFFSET 0.103457 1.857828 -10.548510
			CHANNELS 3 Zrotation Yrotation Xrotation
			JOINT RightLeg
			{
				OFFSET 43.500046 -0.000015 0.000002
				CHANNELS 3 Zrotation Yrotation Xrotation
				JOINT RightFoot
				{
					OFFSET 42.372261 -0.000008 0.000023
					CHANNELS 3 Zrotation Yrotation Xrotation
					JOINT RightToe
					{
						OFFSET 17.299990 -0.000007 -0.000002
						CHANNELS 3 Zrotation Yrotation Xrotation
						End Site
						{
							OFFSET 0.000000 0.000000 0.000000
						}
					}
				}
			}
		}
		JOINT Spine
		{
			OFFSET 6.901967 -2.603726 -0.000001
			CHANNELS 3 Zrotation Yrotation Xrotation
			JOINT Spine1
			{
				OFFSET 12.588100 -0.000009 -0.000003
				CHANNELS 3 Zrotation Yrotation Xrotation
				JOINT Spine2
				{
					OFFSET 12.343202 0.000008 0.000008
					CHANNELS 3 Zrotation Yrotation Xrotation
					JOINT Neck
					{
						OFFSET 25.832897 -0.000015 -0.000004
						CHANNELS 3 Zrotation Yrotation Xrotation
						JOINT Head
						{
							OFFSET 11.766609 0.000013 -0.000006
							CHANNELS 3 Zrotation Yrotation Xrotation
							End Site
							{
								OFFSET 0.000000 0.000000 0.000000
							}
						}
					}
					JOINT LeftShoulder
					{
						OFFSET 19.745911 -1.480373 6.000098
						CHANNELS 3 Zrotation Yrotation Xrotation
						JOINT LeftArm
						{
							OFFSET 11.284123 -0.000007 -0.000032
							CHANNELS 3 Zrotation Yrotation Xrotation
							JOINT LeftForeArm
							{
								OFFSET 33.000050 0.000005 0.000031
								CHANNELS 3 Zrotation Yrotation Xrotation
								JOINT LeftHand
								{
									OFFSET 25.200008 0.000017 0.000013
									CHANNELS 3 Zrotation Yrotation Xrotation
									End Site
									{
										OFFSET 0.000000 0.000000 0.000000
									}
								}
							}
						}
					}
					JOINT RightShoulder
					{
						OFFSET 19.746092 -1.480379 -6.000077
						CHANNELS 3 Zrotation Yrotation Xrotation
						JOINT RightArm
						{
							OFFSET 11.284136 -0.000017 -0.000017
							CHANNELS 3 Zrotation Yrotation Xrotation
							JOINT RightForeArm
							{
								OFFSET 33.000099 0.000019 0.000015
								CHANNELS 3 Zrotation Yrotation Xrotation
								JOINT RightHand
								{
									OFFSET 25.199780 0.000140 0.000408
									CHANNELS 3 Zrotation Yrotation Xrotation
									End Site
									{
										OFFSET 0.000000 0.000000 0.000000
									}
								}
							}
						}
					}
				}
			}
		}
	}
}
MOTION
Frames: 14
Frame Time: 0.016667
143.073985 0.000000 -490.107536 0.000000 -32.612982 0.000000 -0.516838 84.533290 -0.450627 92.963654 0.147391 179.836072 -167.029173 -2.505995 172.098403 -37.082262 -0.476336 -0.563944 77.953269 -0.469320 -3.314501 21.454550 0.003091 0.000001 150.285794 -3.290785 -172.575020 -25.199306 3.374290 8.816050 64.942285 -9.649052 -8.215611 21.454558 -0.003113 -0.000018 8.153641 0.463911 -1.318676 6.283294 0.998385 -2.610401 5.965497 0.982749 -2.616373 12.515157 -1.154674 -7.749595 -3.526088 4.395357 -9.117513 171.505756 -79.301460 7.081710 -40.605163 51.447851 -3.244716 -66.200547 -15.498764 2.371403 -0.651689 -3.558764 30.424510 -158.933004 73.503446 23.021409 25.294122 -56.822133 -63.062040 -26.933121 16.225106 -1.276968 8.532296 -3.145815 -15.403370 
144.821497 0.000000 -488.987434 0.000000 -33.107684 0.000000 -0.406203 84.174057 -0.290454 93.305498 0.972898 179.795563 -168.479621 -3.706806 171.618024 -42.831852 -0.247408 -0.557599 74.871324 -0.724990 -3.840355 21.454555 0.003092 -0.000000 149.688212 -4.194597 -172.516781 -29.529851 3.301181 8.969109 67.214511 -9.215341 -7.352834 21.454560 -0.003120 -0.000018 8.168163 0.674791 -1.191893 6.309487 1.413228 -2.345515 5.991559 1.399189 -2.354004 12.604059 -1.219703 -7.713814 -3.421099 4.580273 -9.123072 171.791510 -79.031717 6.799487 -39.755491 52.247067 -2.177326 -65.045099 -15.922933 2.355516 0.013250 -3.678768 29.998361 -158.894310 73.448039 23.062005 24.089270 -56.992340 -62.108609 -27.590847 16.525141 -1.308317 8.739151 -3.395510 -15.643987 
146.554918 0.000000 -487.863422 0.000000 -33.641232 0.000000 -0.206478 83.924782 -0.151748 93.752682 1.513530 179.838037 -170.322114 -4.769431 170.791338 -49.323389 0.469193 -0.490852 72.010043 -1.423741 -5.506361 21.454558 0.003094 -0.000001 149.616449 -4.680275 -172.564067 -33.403982 3.604019 9.026949 70.226000 -8.827549 -6.877430 21.454559 -0.003115 -0.000017 8.202024 0.832559 -1.092274 6.375842 1.723717 -2.137406 6.057814 1.710930 -2.147774 12.830015 -1.214490 -7.758175 -3.369011 4.699500 -9.194651 172.074395 -78.756921 6.520056 -38.942170 52.972836 -0.754507 -63.207688 -16.440665 2.319548 0.322693 -4.036188 29.205461 -159.264191 73.495209 22.681861 22.490645 -57.279083 -61.082757 -28.231117 16.809464 -1.339078 8.588903 -3.495062 -15.620234 
148.273603 0.000000 -486.733699 0.000000 -34.207678 0.000000 0.032022 83.815041 -0.006423 94.243621 1.930578 -179.932511 -172.497821 -5.792011 170.237588 -55.993620 1.285544 -0.516687 68.911827 -2.158157 -7.026265 21.454558 0.003095 -0.000001 150.167309 -4.999804 -172.346068 -36.362546 3.878937 8.894504 73.212660 -8.464800 -6.772574 21.454558 -0.003106 -0.000017 8.243051 0.965140 -1.020470 6.457026 1.985425 -1.985968 6.138923 1.973543 -1.997917 13.144096 -1.155112 -7.847194 -3.337124 4.917495 -9.333774 172.149412 -78.619009 6.447801 -38.358806 53.685148 0.823357 -60.643746 -16.983899 2.258040 0.444437 -4.587725 28.215628 -159.798914 73.572936 22.132239 20.690295 -57.642915 -59.908475 -29.083187 17.131583 -1.374484 8.639906 -3.628875 -15.452661 
149.979101 0.000000 -485.595131 0.000000 -34.801360 0.000000 0.240827 83.850086 0.171847 94.708087 2.408222 -179.465786 -174.970715 -6.827057 170.682746 -62.260709 1.675222 -0.708722 65.362109 -2.380452 -7.233310 21.454550 0.003093 0.000000 151.273781 -5.469543 -171.602629 -38.185292 3.717573 8.580198 75.613179 -8.021040 -6.672465 21.454557 -0.003103 -0.000018 8.278779 1.103002 -0.961823 6.527650 2.258233 -1.860447 6.209468 2.247097 -1.874046 13.466120 -1.051761 -7.946496 -3.265521 5.356956 -9.530901 171.890648 -78.719462 6.707962 -38.193099 54.420872 2.364132 -57.385236 -17.469922 2.170287 0.645324 -5.250437 27.225913 -160.176282 73.589651 21.744974 18.871026 -58.027476 -58.525959 -30.372378 17.550722 -1.425230 9.302869 -3.881942 -15.282760 
151.674275 0.000000 -484.447394 0.000000 -35.417467 0.000000 0.414801 84.023773 0.350322 95.123207 2.847579 -178.912319 -177.674503 -7.679197 171.816264 -67.861159 1.747730 -0.911560 62.888460 -2.312958 -6.984385 21.454543 0.003091 0.000001 152.743642 -6.079095 -171.091198 -39.102296 3.463572 8.386708 77.475750 -7.675201 -6.473588 21.454558 -0.003108 -0.000019 8.305479 1.220758 -0.884382 6.581203 2.489589 -1.698508 6.262936 2.479423 -1.713510 13.717672 -0.803959 -8.126248 -3.040216 5.700939 -9.771475 171.438198 -78.896534 7.162592 -38.414089 55.076970 3.844007 -53.577031 -17.803368 2.057437 1.151173 -5.850186 26.174063 -160.269404 73.525582 21.650389 16.967997 -58.417725 -56.964964 -31.911131 18.011100 -1.487570 9.791088 -3.874515 -15.109582 
153.362557 0.000000 -483.293039 0.000000 -36.052993 0.000000 0.566528 84.327627 0.493191 95.480859 3.113226 -178.448482 179.487120 -8.177001 173.109165 -72.637399 1.749617 -1.015964 62.863850 -2.326429 -7.180508 21.454540 0.003090 -0.000001 154.425106 -6.702263 -171.542301 -39.402487 3.523180 8.548794 78.972182 -7.597682 -6.178707 21.454557 -0.003117 -0.000019 8.322919 1.287680 -0.762449 6.618135 2.616629 -1.450597 6.299792 2.607961 -1.466373 13.858792 -0.366114 -8.443335 -2.573325 5.676332 -10.043080 171.027558 -78.944230 7.578436 -38.881068 55.544131 5.281078 -49.379140 -17.889368 1.927234 2.073292 -6.219197 24.968503 -160.106205 73.404228 21.819549 14.914319 -58.803588 -55.271600 -33.496528 18.445374 -1.550757 9.358338 -3.244960 -14.927059 
155.048425 0.000000 -482.131217 0.000000 -36.706318 0.000000 0.715261 84.755257 0.603215 95.815379 3.196422 -178.148829 176.598093 -8.349002 174.273902 -76.580107 1.738014 -1.090438 64.241869 -2.131560 -7.056239 21.454543 0.003091 -0.000002 156.384489 -7.235796 -172.573185 -39.131638 3.774950 8.831102 80.167343 -7.647229 -5.911844 21.454558 -0.003120 -0.000018 8.336037 1.307595 -0.612518 6.647697 2.648015 -1.149435 6.329302 2.641169 -1.165407 14.008515 -0.023609 -8.797754 -1.946730 5.621396 -10.342170 170.922027 -78.741058 7.691958 -39.213222 55.837153 6.702043 -44.889618 -17.644173 1.767524 3.114258 -6.336771 23.663628 -160.102720 73.354431 21.823852 12.893696 -59.162154 -53.481643 -35.285825 18.851559 -1.617339 8.608873 -2.189466 -14.879238 
156.736757 0.000000 -480.956893 0.000000 -37.376615 0.000000 0.867414 85.289191 0.685970 96.154136 3.127407 -178.042145 173.732408 -8.286323 175.141358 -79.685995 1.720649 -1.227611 65.612159 -1.484328 -5.888100 21.454546 0.003092 0.000001 158.671205 -7.626637 -173.623967 -38.314268 3.994667 8.951499 81.104835 -7.637529 -5.778983 21.454559 -0.003111 -0.000017 8.349296 1.291789 -0.458165 6.677875 2.607703 -0.841462 6.359463 2.602712 -0.857195 14.288242 -0.033023 -9.075992 -1.304370 5.897515 -10.653009 171.317136 -78.257592 7.305060 -39.063703 56.040599 8.098638 -40.267432 -17.064419 1.589943 4.015049 -6.204717 22.366603 -160.631179 73.482410 21.279912 11.093856 -59.478988 -51.610050 -37.466774 19.239606 -1.695328 8.254944 -1.023327 -15.061634 
158.430394 0.000000 -479.767143 0.000000 -38.064095 0.000000 0.980593 85.865547 0.733827 96.446976 2.971088 -178.079112 170.955591 -8.081212 175.751450 -81.841532 1.754197 -1.461386 66.483954 -0.862142 -4.830597 21.454550 0.003092 0.000003 161.105298 -7.900302 -174.549992 -37.128733 4.086457 8.889553 81.847283 -7.531917 -5.728740 21.454560 -0.003099 -0.000017 8.360248 1.246843 -0.309186 6.703254 2.509383 -0.545979 6.384849 2.506171 -0.561125 14.650887 -0.208275 -9.267340 -0.856003 6.349460 -10.929823 172.232508 -77.747690 6.388686 -38.483006 56.428029 9.292758 -35.964760 -16.475559 1.453049 5.079492 -5.706644 21.241521 -161.524397 73.697409 20.361020 9.433992 -59.758061 -49.562340 -39.983226 19.605068 -1.785364 8.124513 0.046440 -15.305020 
160.126331 0.000000 -478.561395 0.000000 -38.769862 0.000000 1.019568 86.420685 0.739170 96.625249 2.785287 -178.202091 168.289333 -7.802759 176.199167 -82.971794 1.877190 -1.781409 66.675182 -0.698091 -5.031854 21.454551 0.003090 0.000001 163.476988 -8.098294 -175.360043 -35.765763 4.021578 8.700317 82.459941 -7.346943 -5.682972 21.454559 -0.003094 -0.000017 8.361839 1.177576 -0.169485 6.709438 2.362905 -0.270677 6.391055 2.361358 -0.284949 15.004786 -0.308960 -9.391815 -0.757834 6.726942 -11.140307 173.674414 -77.456286 4.928302 -37.531424 57.223728 10.152726 -32.418844 -16.168292 1.361106 6.604385 -4.793733 20.465065 -162.485833 73.878183 19.373165 7.769365 -59.985976 -47.257896 -42.740917 19.939442 -1.884759 7.893421 0.881486 -15.495156 
161.818856 0.000000 -477.337803 0.000000 -39.494625 0.000000 1.008283 86.938332 0.704598 96.617893 2.563176 -178.404691 165.597158 -7.455308 176.568641 -83.268912 1.992587 -2.046624 66.486679 -0.748785 -5.648190 21.454551 0.003087 -0.000002 165.675514 -8.221300 -176.258181 -34.316587 3.904414 8.496769 83.000670 -7.151332 -5.608635 21.454558 -0.003100 -0.000017 8.335380 1.086420 -0.033168 6.659046 2.172876 -0.003964 6.340701 2.172947 -0.017096 15.259025 -0.316910 -9.497600 -0.894817 6.924040 -11.305541 175.575122 -77.318467 2.994979 -35.986739 58.239477 10.832020 -29.783865 -15.938781 1.285682 8.308942 -3.851243 20.159657 -163.305082 73.971867 18.532385 5.996984 -60.087727 -44.810472 -45.737316 20.230428 -1.992920 7.476647 1.507383 -15.948985 
163.507835 0.000000 -476.094205 0.000000 -40.238240 0.000000 0.975196 87.412408 0.640413 96.391320 2.299208 -178.684852 162.779058 -7.049438 176.953799 -82.929973 1.986234 -2.139928 66.263324 -0.700054 -5.681255 21.454551 0.003087 -0.000002 167.658672 -8.259853 -177.438660 -32.828637 3.849919 8.385134 83.513421 -7.013070 -5.497120 21.454557 -0.003114 -0.000018 8.268720 0.979277 0.106502 6.527805 1.950939 0.267920 6.209515 1.952657 0.256131 15.359843 -0.276919 -9.622405 -1.127372 6.928485 -11.453192 177.753374 -77.223234 0.776629 -33.607707 59.229619 11.596993 -28.119139 -15.551392 1.226304 9.840207 -3.220122 20.451652 -163.837718 73.983909 17.986268 4.115765 -60.019260 -42.371741 -49.004374 20.448191 -2.110146 6.874318 1.967079 -17.012551 
165.197782 0.000000 -474.829532 0.000000 -41.001524 0.000000 0.924116 87.830238 0.571138 96.066103 2.054436 -179.005678 160.035171 -6.704502 177.517573 -81.911002 1.813997 -2.178923 66.021530 -0.609856 -5.525433 21.454553 0.003090 0.000000 169.562014 -8.253496 -178.866918 -31.270818 3.900869 8.368075 83.993383 -6.944486 -5.389143 21.454557 -0.003122 -0.000019 8.187570 0.877979 0.249547 6.367176 1.740883 0.546895 6.048943 1.744290 0.536378 15.399824 -0.264365 -9.730784 -1.489110 6.952829 -11.598290 179.786698 -77.187881 -1.295989 -30.341260 60.139172 12.893637 -27.329713 -15.141940 1.189717 11.094243 -2.583488 21.664827 -164.138187 74.077940 17.677483 2.397664 -59.921760 -39.960632 -52.619817 20.496831 -2.236860 6.217317 2.230175 -18.721449 
